# xmcd
#
# Track frame offsets: 
#        150
#        12456
#        24602
#        37433
#        50803
#        64667
#        79047
#        93155
#        107726
#        120788
#        133402
#        155837
#        169178
#        193312
#        206465
#        216158
#        228315
#        240699
#        253820
#        267070
#        281223
#        292548
#        305201
#        317128
#        326016
#
# Disc length: 4478 seconds
#
# Revision: 0
# Processed by: cddbd v1.5.1PL2 Copyright (c) Steve Scherf et al.
# Submitted via: ExactAudioCopy v0.95b3
#
DISCID=7d117c19
DTITLE=Various Artist - 20th Century Blues cd4
DYEAR=2000
DGENRE=Blues
TTITLE0=Memphis Slim - Blues at Midnight
TTITLE1=Jack Dupree - Junker Blues
TTITLE2=Robert Petway - Catfish
TTITLE3=Robert Lockwood - Black Spider Blues
TTITLE4=Muddy Waters - I Be's Troubled
TTITLE5='St.Louis' Jimmy Oden - Going Down Slow
TTITLE6=Arthur Crudup - My Mama Don't Allow Me
TTITLE7=Honey Boy Edwards - Wind Howlin' Blues
TTITLE8=T-Bone Walker - Mean Old World
TTITLE9=Eddie 'Cleanhead' Vinson - Cherry Red
TTITLE10=Louis Jordan - Caldonia Boogie
TTITLE11=Gabriel Brown - I'm Gonna Take It Easy
TTITLE12=Charles Brown - Driftin' Blues
TTITLE13=Big Maceo - Chicago Breakdown
TTITLE14=Lightnin' Hopkins - Feel So Bad
TTITLE15=Brownie McGhee - Big Legged Woman
TTITLE16=Clarence Brown - Guitar In My Hand
TTITLE17=Jimmy Witherspoon - Ain't Nobody's Business
TTITLE18=Pee Wee Crayton - After Hours Boogie
TTITLE19=John Lee Hooker - Boogie Chillen
TTITLE20=Lowell Fulson - Everyday I Have the Blues
TTITLE21=BB King - Get the Blues
TTITLE22=Piano Red - Rocking With Red
TTITLE23=Jimmy Rogers - Ludella
TTITLE24=Little Walter w. Muddy Waters - Evans Shuffle
EXTD=
EXTT0=
EXTT1=
EXTT2=
EXTT3=
EXTT4=
EXTT5=
EXTT6=
EXTT7=
EXTT8=
EXTT9=
EXTT10=
EXTT11=
EXTT12=
EXTT13=
EXTT14=
EXTT15=
EXTT16=
EXTT17=
EXTT18=
EXTT19=
EXTT20=
EXTT21=
EXTT22=
EXTT23=
EXTT24=
PLAYORDER=
